<svg width="40" height="40" viewBox="0 0 40 40" fill="none"
  xmlns="http://www.w3.org/2000/svg">
  <path d="M28.5938 6.09374L28.5938 8.83983C28.5938 9.02733 28.6758 9.20311 28.8204 9.3203C29.1524 
9.59374 29.4727 9.88671 29.7774 10.1953C31.0408 11.4574 32.0476 12.9524 32.7422 14.5976C33.4622 
16.3021 33.8315 18.1341 33.8282 19.9844C33.8282 21.8555 33.461 23.668 32.7422 25.3711C32.0476 
27.0163 31.0408 28.5113 29.7774 29.7734C28.5183 31.0378 27.0259 32.046 25.3829 32.7422C23.6797 
33.4648 21.8712 33.8281 20.0001 33.8281C18.129 33.8281 16.3204 33.4609 14.6172 32.7422C12.9727 
32.0469 11.4922 31.0469 10.2227 29.7734C8.95318 28.5 7.95318 27.0195 7.25787 25.3711C6.53912 23.668 
6.17193 21.8555 6.17193 19.9844C6.17193 18.1133 6.53522 16.3008 7.25787 14.5976C7.95318 12.9492 
8.95318 11.4687 10.2227 10.1953C10.5313 9.88671 10.8516 9.59764 11.1797 9.3203C11.3243 9.20311 
11.4063 9.02342 11.4063 8.83983V6.09374C11.4063 5.84764 11.1329 5.6953 10.9258 5.83202C6.26959 
8.82811 3.18756 14.0703 3.20318 20.0273C3.22662 29.3867 10.8243 36.8906 20.1719 36.7969C29.3712 
36.7031 36.7969 29.2109 36.7969 19.9844C36.7969 14.043 33.7188 8.8242 29.0743 5.83202C28.8672 
5.6992 28.5938 5.84764 28.5938 6.09374ZM19.754 2.62108L15.379 8.16405C15.2149 8.37108 15.3633 
8.67186 15.6251 8.67186H18.5938V20.9375C18.5938 21.1094 18.7344 21.25 18.9063 21.25H21.0938C21.2657 
21.25 21.4063 21.1094 21.4063 20.9375V8.67186H24.3751C24.6368 8.67186 24.7852 8.36717 24.6212 
8.16405L20.2462 2.62108C20.2169 2.58373 20.1796 2.55352 20.1369 2.53275C20.0943 2.51197 20.0475 
2.50118 20.0001 2.50118C19.9526 2.50118 19.9058 2.51197 19.8632 2.53275C19.8205 2.55352 19.7832 
2.58373 19.754 2.62108V2.62108Z" fill="#2e384d"/>
</svg>
